<svg width="24" height="25" viewBox="0 0 24 25" fill="none" xmlns="http://www.w3.org/2000/svg">
<path d="M16 8.15674C17.5913 8.15674 19.1174 8.78888 20.2426 9.9141C21.3679 11.0393 22 12.5654 22 14.1567V21.1567H18V14.1567C18 13.6263 17.7893 13.1176 17.4142 12.7425C17.0391 12.3675 16.5304 12.1567 16 12.1567C15.4696 12.1567 14.9609 12.3675 14.5858 12.7425C14.2107 13.1176 14 13.6263 14 14.1567V21.1567H10V14.1567C10 12.5654 10.6321 11.0393 11.7574 9.9141C12.8826 8.78888 14.4087 8.15674 16 8.15674V8.15674Z" stroke="#F0F0F0" stroke-width="1.5" stroke-linecap="round" stroke-linejoin="round"/>
<path d="M6 9.15674H2V21.1567H6V9.15674Z" stroke="#F0F0F0" stroke-width="1.5" stroke-linecap="round" stroke-linejoin="round"/>
<path d="M4 6.15674C5.10457 6.15674 6 5.26131 6 4.15674C6 3.05217 5.10457 2.15674 4 2.15674C2.89543 2.15674 2 3.05217 2 4.15674C2 5.26131 2.89543 6.15674 4 6.15674Z" stroke="#F0F0F0" stroke-width="1.5" stroke-linecap="round" stroke-linejoin="round"/>
</svg>
