<svg width="1410" height="592" viewBox="0 0 1410 592" fill="none" xmlns="http://www.w3.org/2000/svg">
<rect x="0.5" y="0.5" width="1409" height="591" rx="6.5" fill="white"/>
<path d="M35.1158 55.158H34.1498C33.7578 56.768 33.0998 56.922 31.5038 57.034V58.014H33.7998V65H35.1158V55.158ZM40.5431 63.516H39.0871V65H40.5431V63.516ZM47.7156 60.212C47.7156 62.676 47.0716 64.16 45.6576 64.16C44.2436 64.16 43.5996 62.676 43.5996 60.212C43.5996 57.748 44.2436 56.264 45.6576 56.264C47.0716 56.264 47.7156 57.748 47.7156 60.212ZM49.0316 60.212C49.0316 58.168 48.4856 55.158 45.6576 55.158C42.8296 55.158 42.2836 58.168 42.2836 60.212C42.2836 62.256 42.8296 65.266 45.6576 65.266C48.4856 65.266 49.0316 62.256 49.0316 60.212ZM55.4949 60.212C55.4949 62.676 54.8509 64.16 53.4369 64.16C52.0229 64.16 51.3789 62.676 51.3789 60.212C51.3789 57.748 52.0229 56.264 53.4369 56.264C54.8509 56.264 55.4949 57.748 55.4949 60.212ZM56.8109 60.212C56.8109 58.168 56.2649 55.158 53.4369 55.158C50.6089 55.158 50.0629 58.168 50.0629 60.212C50.0629 62.256 50.6089 65.266 53.4369 65.266C56.2649 65.266 56.8109 62.256 56.8109 60.212ZM63.2742 60.212C63.2742 62.676 62.6302 64.16 61.2162 64.16C59.8022 64.16 59.1582 62.676 59.1582 60.212C59.1582 57.748 59.8022 56.264 61.2162 56.264C62.6302 56.264 63.2742 57.748 63.2742 60.212ZM64.5902 60.212C64.5902 58.168 64.0442 55.158 61.2162 55.158C58.3882 55.158 57.8422 58.168 57.8422 60.212C57.8422 62.256 58.3882 65.266 61.2162 65.266C64.0442 65.266 64.5902 62.256 64.5902 60.212ZM79.654 65V54.948H77.722L74.866 63.446H74.838L71.968 54.948H70.022V65H71.338V59.064C71.338 58.77 71.31 57.496 71.31 56.572H71.338L74.166 65H75.51L78.338 56.558H78.366C78.366 57.496 78.338 58.77 78.338 59.064V65H79.654ZM83.0561 56.11H85.5201C87.0321 56.11 87.6061 56.642 87.6061 57.58C87.6061 58.812 86.8081 59.204 85.5061 59.204H83.0561V56.11ZM81.6981 65H86.0241C88.2501 65 89.4401 63.642 89.4401 62.032C89.4401 60.31 88.2781 59.848 87.6201 59.582C88.7261 59.064 88.9641 58.14 88.9641 57.482C88.9641 56.11 87.9981 54.948 86.1221 54.948H81.6981V65ZM83.0561 60.31H85.7301C86.8361 60.31 88.0821 60.59 88.0821 62.004C88.0821 63.124 87.3681 63.838 85.9541 63.838H83.0561V60.31Z" fill="#666666"/>
<path d="M33.7718 106.71C34.6818 106.71 35.6618 106.29 36.0258 105.534L36.0538 105.562C35.7458 108.11 35.0318 109.244 33.6878 109.244C32.6798 109.244 32.0918 108.628 32.0218 107.634H30.7898C30.7898 108.586 31.4058 110.266 33.7158 110.266C37.1038 110.266 37.2858 105.772 37.2858 104.722C37.2858 103.126 36.9778 100.158 33.8418 100.158C31.7698 100.158 30.6778 101.74 30.6778 103.532C30.6778 105.492 31.9518 106.71 33.7718 106.71ZM33.9538 105.604C33.1278 105.604 31.9518 105.366 31.9518 103.476C31.9518 102.16 32.7078 101.264 33.8558 101.264C35.2698 101.264 35.8438 102.244 35.8438 103.364C35.8438 105.31 34.5978 105.604 33.9538 105.604ZM39.7171 103.686C39.7591 103 39.8431 101.264 41.7051 101.264C43.1471 101.264 43.6511 102.258 43.6511 103.042C43.6511 104.33 42.8951 104.736 41.8451 105.338L40.5431 106.094C39.2271 106.864 38.3031 107.956 38.2331 110H44.9671V108.838H39.6191C39.6751 108.46 39.9691 107.69 41.3131 106.948L42.3351 106.388C43.8051 105.604 44.9671 104.862 44.9671 103.098C44.9671 101.264 43.5951 100.158 41.8871 100.158C40.8231 100.158 38.4851 100.48 38.4851 103.686H39.7171ZM50.6744 100.158H49.7084C49.3164 101.768 48.6584 101.922 47.0624 102.034V103.014H49.3584V110H50.6744V100.158ZM56.1017 108.516H54.6457V110H56.1017V108.516ZM64.2122 102.692C64.2122 101.544 63.3582 100.158 61.1742 100.158C58.8222 100.158 58.1922 101.838 58.1922 102.86C58.1922 103.784 58.6822 104.456 59.5222 104.778C58.4862 105.198 57.8562 105.968 57.8562 107.172C57.8562 107.648 57.8562 108.712 58.8642 109.51C59.6482 110.126 60.6842 110.266 61.2302 110.266C63.5542 110.266 64.5622 108.74 64.5622 107.158C64.5622 106.416 64.2822 105.324 62.9522 104.764C63.3862 104.54 64.2122 104.106 64.2122 102.692ZM61.2022 105.38C62.3222 105.38 63.2462 105.968 63.2462 107.298C63.2462 108.838 62.1682 109.16 61.2722 109.16C59.5642 109.16 59.1722 107.984 59.1722 107.2C59.1722 106.29 59.8162 105.38 61.2022 105.38ZM61.1882 104.316C60.2922 104.316 59.4662 103.742 59.4662 102.804C59.4662 102.174 59.7882 101.264 61.1042 101.264C62.5462 101.264 62.9382 102.132 62.9382 102.734C62.9382 103.63 62.2522 104.316 61.1882 104.316ZM79.654 110V99.948H77.722L74.866 108.446H74.838L71.968 99.948H70.022V110H71.338V104.064C71.338 103.77 71.31 102.496 71.31 101.572H71.338L74.166 110H75.51L78.338 101.558H78.366C78.366 102.496 78.338 103.77 78.338 104.064V110H79.654ZM83.0561 101.11H85.5201C87.0321 101.11 87.6061 101.642 87.6061 102.58C87.6061 103.812 86.8081 104.204 85.5061 104.204H83.0561V101.11ZM81.6981 110H86.0241C88.2501 110 89.4401 108.642 89.4401 107.032C89.4401 105.31 88.2781 104.848 87.6201 104.582C88.7261 104.064 88.9641 103.14 88.9641 102.482C88.9641 101.11 87.9981 99.948 86.1221 99.948H81.6981V110ZM83.0561 105.31H85.7301C86.8361 105.31 88.0821 105.59 88.0821 107.004C88.0821 108.124 87.3681 108.838 85.9541 108.838H83.0561V105.31Z" fill="#666666"/>
<path d="M36.9778 147.692C36.9778 146.544 36.1238 145.158 33.9398 145.158C31.5878 145.158 30.9578 146.838 30.9578 147.86C30.9578 148.784 31.4478 149.456 32.2878 149.778C31.2518 150.198 30.6218 150.968 30.6218 152.172C30.6218 152.648 30.6218 153.712 31.6298 154.51C32.4138 155.126 33.4498 155.266 33.9958 155.266C36.3198 155.266 37.3278 153.74 37.3278 152.158C37.3278 151.416 37.0478 150.324 35.7178 149.764C36.1518 149.54 36.9778 149.106 36.9778 147.692ZM33.9678 150.38C35.0878 150.38 36.0118 150.968 36.0118 152.298C36.0118 153.838 34.9338 154.16 34.0378 154.16C32.3298 154.16 31.9378 152.984 31.9378 152.2C31.9378 151.29 32.5818 150.38 33.9678 150.38ZM33.9538 149.316C33.0578 149.316 32.2318 148.742 32.2318 147.804C32.2318 147.174 32.5538 146.264 33.8698 146.264C35.3118 146.264 35.7038 147.132 35.7038 147.734C35.7038 148.63 35.0178 149.316 33.9538 149.316ZM42.8951 145.158H41.9291C41.5371 146.768 40.8791 146.922 39.2831 147.034V148.014H41.5791V155H42.8951V145.158ZM49.3304 151.71C50.2404 151.71 51.2204 151.29 51.5844 150.534L51.6124 150.562C51.3044 153.11 50.5904 154.244 49.2464 154.244C48.2384 154.244 47.6504 153.628 47.5804 152.634H46.3484C46.3484 153.586 46.9644 155.266 49.2744 155.266C52.6624 155.266 52.8444 150.772 52.8444 149.722C52.8444 148.126 52.5364 145.158 49.4004 145.158C47.3284 145.158 46.2364 146.74 46.2364 148.532C46.2364 150.492 47.5104 151.71 49.3304 151.71ZM49.5124 150.604C48.6864 150.604 47.5104 150.366 47.5104 148.476C47.5104 147.16 48.2664 146.264 49.4144 146.264C50.8284 146.264 51.4024 147.244 51.4024 148.364C51.4024 150.31 50.1564 150.604 49.5124 150.604ZM56.1017 153.516H54.6457V155H56.1017V153.516ZM64.6462 152.606V151.542H63.2042V145.158H62.1822L57.6742 151.402V152.606H61.9722V155H63.2042V152.606H64.6462ZM61.9442 147.076H61.9722V151.542H58.8082L61.9442 147.076ZM79.654 155V144.948H77.722L74.866 153.446H74.838L71.968 144.948H70.022V155H71.338V149.064C71.338 148.77 71.31 147.496 71.31 146.572H71.338L74.166 155H75.51L78.338 146.558H78.366C78.366 147.496 78.338 148.77 78.338 149.064V155H79.654ZM83.0561 146.11H85.5201C87.0321 146.11 87.6061 146.642 87.6061 147.58C87.6061 148.812 86.8081 149.204 85.5061 149.204H83.0561V146.11ZM81.6981 155H86.0241C88.2501 155 89.4401 153.642 89.4401 152.032C89.4401 150.31 88.2781 149.848 87.6201 149.582C88.7261 149.064 88.9641 148.14 88.9641 147.482C88.9641 146.11 87.9981 144.948 86.1221 144.948H81.6981V155ZM83.0561 150.31H85.7301C86.8361 150.31 88.0821 150.59 88.0821 152.004C88.0821 153.124 87.3681 153.838 85.9541 153.838H83.0561V150.31Z" fill="#666666"/>
<path d="M30.6078 191.572H36.0258C34.1358 193.77 32.3438 197.298 32.0078 200H33.3658C34.0798 195.604 36.4318 192.468 37.4118 191.446V190.368H30.6078V191.572ZM42.8951 190.158H41.9291C41.5371 191.768 40.8791 191.922 39.2831 192.034V193.014H41.5791V200H42.8951V190.158ZM46.1664 191.572H51.5844C49.6944 193.77 47.9024 197.298 47.5664 200H48.9244C49.6384 195.604 51.9904 192.468 52.9704 191.446V190.368H46.1664V191.572ZM56.1017 198.516H54.6457V200H56.1017V198.516ZM63.2742 195.212C63.2742 197.676 62.6302 199.16 61.2162 199.16C59.8022 199.16 59.1582 197.676 59.1582 195.212C59.1582 192.748 59.8022 191.264 61.2162 191.264C62.6302 191.264 63.2742 192.748 63.2742 195.212ZM64.5902 195.212C64.5902 193.168 64.0442 190.158 61.2162 190.158C58.3882 190.158 57.8422 193.168 57.8422 195.212C57.8422 197.256 58.3882 200.266 61.2162 200.266C64.0442 200.266 64.5902 197.256 64.5902 195.212ZM79.654 200V189.948H77.722L74.866 198.446H74.838L71.968 189.948H70.022V200H71.338V194.064C71.338 193.77 71.31 192.496 71.31 191.572H71.338L74.166 200H75.51L78.338 191.558H78.366C78.366 192.496 78.338 193.77 78.338 194.064V200H79.654ZM83.0561 191.11H85.5201C87.0321 191.11 87.6061 191.642 87.6061 192.58C87.6061 193.812 86.8081 194.204 85.5061 194.204H83.0561V191.11ZM81.6981 200H86.0241C88.2501 200 89.4401 198.642 89.4401 197.032C89.4401 195.31 88.2781 194.848 87.6201 194.582C88.7261 194.064 88.9641 193.14 88.9641 192.482C88.9641 191.11 87.9981 189.948 86.1221 189.948H81.6981V200ZM83.0561 195.31H85.7301C86.8361 195.31 88.0821 195.59 88.0821 197.004C88.0821 198.124 87.3681 198.838 85.9541 198.838H83.0561V195.31Z" fill="#666666"/>
<path d="M37.1318 237.776C37.0058 235.774 35.3958 235.158 34.2618 235.158C31.3218 235.158 30.6218 238.266 30.6218 240.422C30.6218 241.71 30.7898 242.914 31.3778 243.838C32.0778 244.93 33.1558 245.266 33.9118 245.266C35.2978 245.266 35.8858 244.888 36.4038 244.314C37.0758 243.586 37.3418 242.858 37.3418 241.85C37.3418 239.498 35.4658 238.728 34.2618 238.728C32.9178 238.728 32.2318 239.4 31.9238 239.932L31.8958 239.904C31.8958 238.868 32.3018 236.264 34.2338 236.264C35.2978 236.264 35.7738 236.908 35.9278 237.776H37.1318ZM32.0638 241.976C32.0638 240.814 32.7218 239.834 34.0798 239.834C35.6058 239.834 36.0678 241.038 36.0678 241.906C36.0678 243.236 35.3118 244.16 34.1358 244.16C32.6938 244.16 32.0638 243.026 32.0638 241.976ZM42.8951 235.158H41.9291C41.5371 236.768 40.8791 236.922 39.2831 237.034V238.014H41.5791V245H42.8951V235.158ZM52.9704 242.606V241.542H51.5284V235.158H50.5064L45.9984 241.402V242.606H50.2964V245H51.5284V242.606H52.9704ZM50.2684 237.076H50.2964V241.542H47.1324L50.2684 237.076ZM56.1017 243.516H54.6457V245H56.1017V243.516ZM59.8022 236.572H63.9742V235.368H58.8782L58.1362 240.646L59.2002 240.702C59.6622 240.1 60.3062 239.764 61.0202 239.764C62.2382 239.764 63.2042 240.534 63.2042 241.948C63.2042 243.18 62.4062 244.202 61.1322 244.202C60.0262 244.202 59.1722 243.698 59.0462 242.55H57.7722C58.0102 244.748 59.6622 245.266 60.9502 245.266C64.0302 245.266 64.5202 242.9 64.5202 241.808C64.5202 239.778 62.8822 238.658 61.2862 238.658C60.4042 238.658 59.8022 238.952 59.3822 239.274L59.8022 236.572ZM79.654 245V234.948H77.722L74.866 243.446H74.838L71.968 234.948H70.022V245H71.338V239.064C71.338 238.77 71.31 237.496 71.31 236.572H71.338L74.166 245H75.51L78.338 236.558H78.366C78.366 237.496 78.338 238.77 78.338 239.064V245H79.654ZM83.0561 236.11H85.5201C87.0321 236.11 87.6061 236.642 87.6061 237.58C87.6061 238.812 86.8081 239.204 85.5061 239.204H83.0561V236.11ZM81.6981 245H86.0241C88.2501 245 89.4401 243.642 89.4401 242.032C89.4401 240.31 88.2781 239.848 87.6201 239.582C88.7261 239.064 88.9641 238.14 88.9641 237.482C88.9641 236.11 87.9981 234.948 86.1221 234.948H81.6981V245ZM83.0561 240.31H85.7301C86.8361 240.31 88.0821 240.59 88.0821 242.004C88.0821 243.124 87.3681 243.838 85.9541 243.838H83.0561V240.31Z" fill="#666666"/>
<path d="M32.5678 281.572H36.7398V280.368H31.6438L30.9018 285.646L31.9658 285.702C32.4278 285.1 33.0718 284.764 33.7858 284.764C35.0038 284.764 35.9698 285.534 35.9698 286.948C35.9698 288.18 35.1718 289.202 33.8978 289.202C32.7918 289.202 31.9378 288.698 31.8118 287.55H30.5378C30.7758 289.748 32.4278 290.266 33.7158 290.266C36.7958 290.266 37.2858 287.9 37.2858 286.808C37.2858 284.778 35.6478 283.658 34.0518 283.658C33.1698 283.658 32.5678 283.952 32.1478 284.274L32.5678 281.572ZM42.8951 280.158H41.9291C41.5371 281.768 40.8791 281.922 39.2831 282.034V283.014H41.5791V290H42.8951V280.158ZM47.4964 283.686C47.5384 283 47.6224 281.264 49.4844 281.264C50.9264 281.264 51.4304 282.258 51.4304 283.042C51.4304 284.33 50.6744 284.736 49.6244 285.338L48.3224 286.094C47.0064 286.864 46.0824 287.956 46.0124 290H52.7464V288.838H47.3984C47.4544 288.46 47.7484 287.69 49.0924 286.948L50.1144 286.388C51.5844 285.604 52.7464 284.862 52.7464 283.098C52.7464 281.264 51.3744 280.158 49.6664 280.158C48.6024 280.158 46.2644 280.48 46.2644 283.686H47.4964ZM56.1017 288.516H54.6457V290H56.1017V288.516ZM62.3502 280.158H61.3842C60.9922 281.768 60.3342 281.922 58.7382 282.034V283.014H61.0342V290H62.3502V280.158ZM79.654 290V279.948H77.722L74.866 288.446H74.838L71.968 279.948H70.022V290H71.338V284.064C71.338 283.77 71.31 282.496 71.31 281.572H71.338L74.166 290H75.51L78.338 281.558H78.366C78.366 282.496 78.338 283.77 78.338 284.064V290H79.654ZM83.0561 281.11H85.5201C87.0321 281.11 87.6061 281.642 87.6061 282.58C87.6061 283.812 86.8081 284.204 85.5061 284.204H83.0561V281.11ZM81.6981 290H86.0241C88.2501 290 89.4401 288.642 89.4401 287.032C89.4401 285.31 88.2781 284.848 87.6201 284.582C88.7261 284.064 88.9641 283.14 88.9641 282.482C88.9641 281.11 87.9981 279.948 86.1221 279.948H81.6981V290ZM83.0561 285.31H85.7301C86.8361 285.31 88.0821 285.59 88.0821 287.004C88.0821 288.124 87.3681 288.838 85.9541 288.838H83.0561V285.31Z" fill="#666666"/>
<path d="M37.4118 332.606V331.542H35.9698V325.158H34.9478L30.4398 331.402V332.606H34.7378V335H35.9698V332.606H37.4118ZM34.7098 327.076H34.7378V331.542H31.5738L34.7098 327.076ZM43.8191 330.212C43.8191 332.676 43.1751 334.16 41.7611 334.16C40.3471 334.16 39.7031 332.676 39.7031 330.212C39.7031 327.748 40.3471 326.264 41.7611 326.264C43.1751 326.264 43.8191 327.748 43.8191 330.212ZM45.1351 330.212C45.1351 328.168 44.5891 325.158 41.7611 325.158C38.9331 325.158 38.3871 328.168 38.3871 330.212C38.3871 332.256 38.9331 335.266 41.7611 335.266C44.5891 335.266 45.1351 332.256 45.1351 330.212ZM49.3304 331.71C50.2404 331.71 51.2204 331.29 51.5844 330.534L51.6124 330.562C51.3044 333.11 50.5904 334.244 49.2464 334.244C48.2384 334.244 47.6504 333.628 47.5804 332.634H46.3484C46.3484 333.586 46.9644 335.266 49.2744 335.266C52.6624 335.266 52.8444 330.772 52.8444 329.722C52.8444 328.126 52.5364 325.158 49.4004 325.158C47.3284 325.158 46.2364 326.74 46.2364 328.532C46.2364 330.492 47.5104 331.71 49.3304 331.71ZM49.5124 330.604C48.6864 330.604 47.5104 330.366 47.5104 328.476C47.5104 327.16 48.2664 326.264 49.4144 326.264C50.8284 326.264 51.4024 327.244 51.4024 328.364C51.4024 330.31 50.1564 330.604 49.5124 330.604ZM56.1017 333.516H54.6457V335H56.1017V333.516ZM57.8422 326.572H63.2602C61.3702 328.77 59.5782 332.298 59.2422 335H60.6002C61.3142 330.604 63.6662 327.468 64.6462 326.446V325.368H57.8422V326.572ZM79.654 335V324.948H77.722L74.866 333.446H74.838L71.968 324.948H70.022V335H71.338V329.064C71.338 328.77 71.31 327.496 71.31 326.572H71.338L74.166 335H75.51L78.338 326.558H78.366C78.366 327.496 78.338 328.77 78.338 329.064V335H79.654ZM83.0561 326.11H85.5201C87.0321 326.11 87.6061 326.642 87.6061 327.58C87.6061 328.812 86.8081 329.204 85.5061 329.204H83.0561V326.11ZM81.6981 335H86.0241C88.2501 335 89.4401 333.642 89.4401 332.032C89.4401 330.31 88.2781 329.848 87.6201 329.582C88.7261 329.064 88.9641 328.14 88.9641 327.482C88.9641 326.11 87.9981 324.948 86.1221 324.948H81.6981V335ZM83.0561 330.31H85.7301C86.8361 330.31 88.0821 330.59 88.0821 332.004C88.0821 333.124 87.3681 333.838 85.9541 333.838H83.0561V330.31Z" fill="#666666"/>
<path d="M33.2258 375.464C33.4078 375.464 33.6038 375.45 33.7858 375.45C34.6258 375.45 36.0818 375.604 36.0818 377.256C36.0818 378.39 35.1998 379.16 33.9398 379.16C32.1058 379.16 31.8818 377.914 31.8398 376.99H30.5658C30.6498 378.124 30.9438 379.258 32.0358 379.832C32.5118 380.084 33.1278 380.266 33.8558 380.266C36.3618 380.266 37.3978 378.712 37.3978 377.102C37.3978 375.786 36.7118 375.114 35.7598 374.806V374.778C36.2918 374.61 37.0198 374.008 37.0198 372.748C37.0198 371.25 35.8858 370.158 33.9818 370.158C31.3918 370.158 30.8038 371.936 30.8038 373.378H32.0078C32.0638 372.692 32.1758 371.264 33.9258 371.264C35.3958 371.264 35.7458 372.23 35.7458 372.818C35.7458 374.05 34.8218 374.428 33.8698 374.428C33.6598 374.428 33.4358 374.414 33.2258 374.4V375.464ZM43.8191 375.212C43.8191 377.676 43.1751 379.16 41.7611 379.16C40.3471 379.16 39.7031 377.676 39.7031 375.212C39.7031 372.748 40.3471 371.264 41.7611 371.264C43.1751 371.264 43.8191 372.748 43.8191 375.212ZM45.1351 375.212C45.1351 373.168 44.5891 370.158 41.7611 370.158C38.9331 370.158 38.3871 373.168 38.3871 375.212C38.3871 377.256 38.9331 380.266 41.7611 380.266C44.5891 380.266 45.1351 377.256 45.1351 375.212ZM46.1664 371.572H51.5844C49.6944 373.77 47.9024 377.298 47.5664 380H48.9244C49.6384 375.604 51.9904 372.468 52.9704 371.446V370.368H46.1664V371.572ZM56.1017 378.516H54.6457V380H56.1017V378.516ZM60.4602 375.464C60.6422 375.464 60.8382 375.45 61.0202 375.45C61.8602 375.45 63.3162 375.604 63.3162 377.256C63.3162 378.39 62.4342 379.16 61.1742 379.16C59.3402 379.16 59.1162 377.914 59.0742 376.99H57.8002C57.8842 378.124 58.1782 379.258 59.2702 379.832C59.7462 380.084 60.3622 380.266 61.0902 380.266C63.5962 380.266 64.6322 378.712 64.6322 377.102C64.6322 375.786 63.9462 375.114 62.9942 374.806V374.778C63.5262 374.61 64.2542 374.008 64.2542 372.748C64.2542 371.25 63.1202 370.158 61.2162 370.158C58.6262 370.158 58.0382 371.936 58.0382 373.378H59.2422C59.2982 372.692 59.4102 371.264 61.1602 371.264C62.6302 371.264 62.9802 372.23 62.9802 372.818C62.9802 374.05 62.0562 374.428 61.1042 374.428C60.8942 374.428 60.6702 374.414 60.4602 374.4V375.464ZM79.654 380V369.948H77.722L74.866 378.446H74.838L71.968 369.948H70.022V380H71.338V374.064C71.338 373.77 71.31 372.496 71.31 371.572H71.338L74.166 380H75.51L78.338 371.558H78.366C78.366 372.496 78.338 373.77 78.338 374.064V380H79.654ZM83.0561 371.11H85.5201C87.0321 371.11 87.6061 371.642 87.6061 372.58C87.6061 373.812 86.8081 374.204 85.5061 374.204H83.0561V371.11ZM81.6981 380H86.0241C88.2501 380 89.4401 378.642 89.4401 377.032C89.4401 375.31 88.2781 374.848 87.6201 374.582C88.7261 374.064 88.9641 373.14 88.9641 372.482C88.9641 371.11 87.9981 369.948 86.1221 369.948H81.6981V380ZM83.0561 375.31H85.7301C86.8361 375.31 88.0821 375.59 88.0821 377.004C88.0821 378.124 87.3681 378.838 85.9541 378.838H83.0561V375.31Z" fill="#666666"/>
<path d="M31.9378 418.686C31.9798 418 32.0638 416.264 33.9258 416.264C35.3678 416.264 35.8718 417.258 35.8718 418.042C35.8718 419.33 35.1158 419.736 34.0658 420.338L32.7638 421.094C31.4478 421.864 30.5238 422.956 30.4538 425H37.1878V423.838H31.8398C31.8958 423.46 32.1898 422.69 33.5338 421.948L34.5558 421.388C36.0258 420.604 37.1878 419.862 37.1878 418.098C37.1878 416.264 35.8158 415.158 34.1078 415.158C33.0438 415.158 30.7058 415.48 30.7058 418.686H31.9378ZM43.8191 420.212C43.8191 422.676 43.1751 424.16 41.7611 424.16C40.3471 424.16 39.7031 422.676 39.7031 420.212C39.7031 417.748 40.3471 416.264 41.7611 416.264C43.1751 416.264 43.8191 417.748 43.8191 420.212ZM45.1351 420.212C45.1351 418.168 44.5891 415.158 41.7611 415.158C38.9331 415.158 38.3871 418.168 38.3871 420.212C38.3871 422.256 38.9331 425.266 41.7611 425.266C44.5891 425.266 45.1351 422.256 45.1351 420.212ZM52.9704 422.606V421.542H51.5284V415.158H50.5064L45.9984 421.402V422.606H50.2964V425H51.5284V422.606H52.9704ZM50.2684 417.076H50.2964V421.542H47.1324L50.2684 417.076ZM56.1017 423.516H54.6457V425H56.1017V423.516ZM64.2122 417.692C64.2122 416.544 63.3582 415.158 61.1742 415.158C58.8222 415.158 58.1922 416.838 58.1922 417.86C58.1922 418.784 58.6822 419.456 59.5222 419.778C58.4862 420.198 57.8562 420.968 57.8562 422.172C57.8562 422.648 57.8562 423.712 58.8642 424.51C59.6482 425.126 60.6842 425.266 61.2302 425.266C63.5542 425.266 64.5622 423.74 64.5622 422.158C64.5622 421.416 64.2822 420.324 62.9522 419.764C63.3862 419.54 64.2122 419.106 64.2122 417.692ZM61.2022 420.38C62.3222 420.38 63.2462 420.968 63.2462 422.298C63.2462 423.838 62.1682 424.16 61.2722 424.16C59.5642 424.16 59.1722 422.984 59.1722 422.2C59.1722 421.29 59.8162 420.38 61.2022 420.38ZM61.1882 419.316C60.2922 419.316 59.4662 418.742 59.4662 417.804C59.4662 417.174 59.7882 416.264 61.1042 416.264C62.5462 416.264 62.9382 417.132 62.9382 417.734C62.9382 418.63 62.2522 419.316 61.1882 419.316ZM79.654 425V414.948H77.722L74.866 423.446H74.838L71.968 414.948H70.022V425H71.338V419.064C71.338 418.77 71.31 417.496 71.31 416.572H71.338L74.166 425H75.51L78.338 416.558H78.366C78.366 417.496 78.338 418.77 78.338 419.064V425H79.654ZM83.0561 416.11H85.5201C87.0321 416.11 87.6061 416.642 87.6061 417.58C87.6061 418.812 86.8081 419.204 85.5061 419.204H83.0561V416.11ZM81.6981 425H86.0241C88.2501 425 89.4401 423.642 89.4401 422.032C89.4401 420.31 88.2781 419.848 87.6201 419.582C88.7261 419.064 88.9641 418.14 88.9641 417.482C88.9641 416.11 87.9981 414.948 86.1221 414.948H81.6981V425ZM83.0561 420.31H85.7301C86.8361 420.31 88.0821 420.59 88.0821 422.004C88.0821 423.124 87.3681 423.838 85.9541 423.838H83.0561V420.31Z" fill="#666666"/>
<path d="M35.1158 460.158H34.1498C33.7578 461.768 33.0998 461.922 31.5038 462.034V463.014H33.7998V470H35.1158V460.158ZM43.8191 465.212C43.8191 467.676 43.1751 469.16 41.7611 469.16C40.3471 469.16 39.7031 467.676 39.7031 465.212C39.7031 462.748 40.3471 461.264 41.7611 461.264C43.1751 461.264 43.8191 462.748 43.8191 465.212ZM45.1351 465.212C45.1351 463.168 44.5891 460.158 41.7611 460.158C38.9331 460.158 38.3871 463.168 38.3871 465.212C38.3871 467.256 38.9331 470.266 41.7611 470.266C44.5891 470.266 45.1351 467.256 45.1351 465.212ZM47.4964 463.686C47.5384 463 47.6224 461.264 49.4844 461.264C50.9264 461.264 51.4304 462.258 51.4304 463.042C51.4304 464.33 50.6744 464.736 49.6244 465.338L48.3224 466.094C47.0064 466.864 46.0824 467.956 46.0124 470H52.7464V468.838H47.3984C47.4544 468.46 47.7484 467.69 49.0924 466.948L50.1144 466.388C51.5844 465.604 52.7464 464.862 52.7464 463.098C52.7464 461.264 51.3744 460.158 49.6664 460.158C48.6024 460.158 46.2644 460.48 46.2644 463.686H47.4964ZM56.1017 468.516H54.6457V470H56.1017V468.516ZM64.6462 467.606V466.542H63.2042V460.158H62.1822L57.6742 466.402V467.606H61.9722V470H63.2042V467.606H64.6462ZM61.9442 462.076H61.9722V466.542H58.8082L61.9442 462.076ZM79.654 470V459.948H77.722L74.866 468.446H74.838L71.968 459.948H70.022V470H71.338V464.064C71.338 463.77 71.31 462.496 71.31 461.572H71.338L74.166 470H75.51L78.338 461.558H78.366C78.366 462.496 78.338 463.77 78.338 464.064V470H79.654ZM83.0561 461.11H85.5201C87.0321 461.11 87.6061 461.642 87.6061 462.58C87.6061 463.812 86.8081 464.204 85.5061 464.204H83.0561V461.11ZM81.6981 470H86.0241C88.2501 470 89.4401 468.642 89.4401 467.032C89.4401 465.31 88.2781 464.848 87.6201 464.582C88.7261 464.064 88.9641 463.14 88.9641 462.482C88.9641 461.11 87.9981 459.948 86.1221 459.948H81.6981V470ZM83.0561 465.31H85.7301C86.8361 465.31 88.0821 465.59 88.0821 467.004C88.0821 468.124 87.3681 468.838 85.9541 468.838H83.0561V465.31Z" fill="#666666"/>
<path d="M51.0926 510.212C51.0926 512.676 50.4486 514.16 49.0346 514.16C47.6206 514.16 46.9766 512.676 46.9766 510.212C46.9766 507.748 47.6206 506.264 49.0346 506.264C50.4486 506.264 51.0926 507.748 51.0926 510.212ZM52.4086 510.212C52.4086 508.168 51.8626 505.158 49.0346 505.158C46.2066 505.158 45.6606 508.168 45.6606 510.212C45.6606 512.256 46.2066 515.266 49.0346 515.266C51.8626 515.266 52.4086 512.256 52.4086 510.212ZM58.7924 515V514.09H58.8204C59.0724 514.496 59.5904 515.21 60.8364 515.21C63.3284 515.21 64.0564 512.872 64.0564 511.122C64.0564 509.064 62.9504 507.468 61.0044 507.468C60.1504 507.482 59.4224 507.832 58.8904 508.602H58.8624V504.948H57.6304V515H58.7924ZM62.7824 511.318C62.7824 512.928 62.1524 514.146 60.8084 514.146C60.0244 514.146 58.8064 513.628 58.8064 511.682C58.8064 510.492 59.0024 508.574 60.7804 508.574C62.6844 508.574 62.7824 510.38 62.7824 511.318ZM67.8522 513.642H67.8242L65.8782 507.678H64.4782L67.1942 515.196C66.6062 516.708 66.5362 516.89 65.8922 516.89C65.5562 516.89 65.3042 516.82 65.1502 516.764V517.884C65.3462 517.94 65.4862 517.996 65.6682 517.996C67.2502 517.996 67.3762 517.828 68.5382 514.86C69.4762 512.466 70.3162 510.072 71.1702 507.678H69.8122L67.8522 513.642ZM74.9222 508.7V507.678H73.7462V505.634H72.5142V507.678H71.5202V508.7H72.5142V513.53C72.5142 514.412 72.7802 515.098 73.9982 515.098C74.1242 515.098 74.4742 515.042 74.9222 515V514.034H74.4882C74.2362 514.034 73.7462 514.034 73.7462 513.46V508.7H74.9222ZM81.1147 512.704C81.0727 513.25 80.3867 514.146 79.2247 514.146C77.8107 514.146 77.0967 513.264 77.0967 511.738H82.4447C82.4447 509.148 81.4087 507.468 79.2947 507.468C76.8727 507.468 75.7807 509.274 75.7807 511.542C75.7807 513.656 76.9987 515.21 79.0567 515.21C80.2327 515.21 80.7087 514.93 81.0447 514.706C81.9687 514.09 82.3047 513.054 82.3467 512.704H81.1147ZM77.0967 510.758C77.0967 509.624 77.9927 508.574 79.1267 508.574C80.6247 508.574 81.1007 509.624 81.1707 510.758H77.0967ZM89.258 509.764C89.258 509.4 89.076 507.468 86.458 507.468C85.016 507.468 83.686 508.196 83.686 509.806C83.686 510.814 84.358 511.332 85.38 511.584L86.808 511.934C87.858 512.2 88.264 512.396 88.264 512.984C88.264 513.796 87.466 514.146 86.584 514.146C84.848 514.146 84.68 513.222 84.638 512.648H83.448C83.49 513.53 83.7 515.21 86.598 515.21C88.25 515.21 89.496 514.3 89.496 512.788C89.496 511.794 88.964 511.234 87.438 510.856L86.206 510.548C85.254 510.31 84.876 510.17 84.876 509.568C84.876 508.658 85.954 508.532 86.332 508.532C87.886 508.532 88.054 509.302 88.068 509.764H89.258Z" fill="#666666"/>
<path d="M165.238 532.766V533.76C165.238 534.698 165.756 536.266 168.094 536.266C169.452 536.266 170.992 535.636 170.992 533.284V525.948H169.634V533.368C169.634 534.348 169.284 535.104 168.024 535.104C167.086 535.104 166.512 534.67 166.512 533.466V532.766H165.238ZM173.729 530.904C173.813 530.344 174.009 529.49 175.409 529.49C176.571 529.49 177.131 529.91 177.131 530.68C177.131 531.408 176.781 531.52 176.487 531.548L174.457 531.8C172.413 532.052 172.231 533.48 172.231 534.096C172.231 535.356 173.183 536.21 174.527 536.21C175.955 536.21 176.697 535.538 177.173 535.02C177.215 535.58 177.383 536.14 178.475 536.14C178.755 536.14 178.937 536.056 179.147 536V535.104C179.007 535.132 178.853 535.16 178.741 535.16C178.489 535.16 178.335 535.034 178.335 534.726V530.512C178.335 528.636 176.207 528.468 175.619 528.468C173.813 528.468 172.651 529.154 172.595 530.904H173.729ZM177.103 533.466C177.103 534.446 175.983 535.188 174.835 535.188C173.911 535.188 173.505 534.712 173.505 533.914C173.505 532.99 174.471 532.808 175.073 532.724C176.599 532.528 176.907 532.416 177.103 532.262V533.466ZM186.38 531.016C186.38 528.93 184.952 528.468 183.818 528.468C182.558 528.468 181.872 529.322 181.606 529.714H181.578V528.678H180.416V536H181.648V532.01C181.648 530.022 182.88 529.574 183.58 529.574C184.784 529.574 185.148 530.218 185.148 531.492V536H186.38V531.016ZM189.959 534.516H188.503V536H189.959V534.516ZM199.27 526.158H198.304C197.912 527.768 197.254 527.922 195.658 528.034V529.014H197.954V536H199.27V526.158ZM207.049 526.158H206.083C205.691 527.768 205.033 527.922 203.437 528.034V529.014H205.733V536H207.049V526.158Z" fill="#666666"/>
<path d="M250.238 532.766V533.76C250.238 534.698 250.756 536.266 253.094 536.266C254.452 536.266 255.992 535.636 255.992 533.284V525.948H254.634V533.368C254.634 534.348 254.284 535.104 253.024 535.104C252.086 535.104 251.512 534.67 251.512 533.466V532.766H250.238ZM258.729 530.904C258.813 530.344 259.009 529.49 260.409 529.49C261.571 529.49 262.131 529.91 262.131 530.68C262.131 531.408 261.781 531.52 261.487 531.548L259.457 531.8C257.413 532.052 257.231 533.48 257.231 534.096C257.231 535.356 258.183 536.21 259.527 536.21C260.955 536.21 261.697 535.538 262.173 535.02C262.215 535.58 262.383 536.14 263.475 536.14C263.755 536.14 263.937 536.056 264.147 536V535.104C264.007 535.132 263.853 535.16 263.741 535.16C263.489 535.16 263.335 535.034 263.335 534.726V530.512C263.335 528.636 261.207 528.468 260.619 528.468C258.813 528.468 257.651 529.154 257.595 530.904H258.729ZM262.103 533.466C262.103 534.446 260.983 535.188 259.835 535.188C258.911 535.188 258.505 534.712 258.505 533.914C258.505 532.99 259.471 532.808 260.073 532.724C261.599 532.528 261.907 532.416 262.103 532.262V533.466ZM271.38 531.016C271.38 528.93 269.952 528.468 268.818 528.468C267.558 528.468 266.872 529.322 266.606 529.714H266.578V528.678H265.416V536H266.648V532.01C266.648 530.022 267.88 529.574 268.58 529.574C269.784 529.574 270.148 530.218 270.148 531.492V536H271.38V531.016ZM274.959 534.516H273.503V536H274.959V534.516ZM284.27 526.158H283.304C282.912 527.768 282.254 527.922 280.658 528.034V529.014H282.954V536H284.27V526.158ZM288.871 529.686C288.913 529 288.997 527.264 290.859 527.264C292.301 527.264 292.805 528.258 292.805 529.042C292.805 530.33 292.049 530.736 290.999 531.338L289.697 532.094C288.381 532.864 287.457 533.956 287.387 536H294.121V534.838H288.773C288.829 534.46 289.123 533.69 290.467 532.948L291.489 532.388C292.959 531.604 294.121 530.862 294.121 529.098C294.121 527.264 292.749 526.158 291.041 526.158C289.977 526.158 287.639 526.48 287.639 529.686H288.871Z" fill="#666666"/>
<path d="M335.238 532.766V533.76C335.238 534.698 335.756 536.266 338.094 536.266C339.452 536.266 340.992 535.636 340.992 533.284V525.948H339.634V533.368C339.634 534.348 339.284 535.104 338.024 535.104C337.086 535.104 336.512 534.67 336.512 533.466V532.766H335.238ZM343.729 530.904C343.813 530.344 344.009 529.49 345.409 529.49C346.571 529.49 347.131 529.91 347.131 530.68C347.131 531.408 346.781 531.52 346.487 531.548L344.457 531.8C342.413 532.052 342.231 533.48 342.231 534.096C342.231 535.356 343.183 536.21 344.527 536.21C345.955 536.21 346.697 535.538 347.173 535.02C347.215 535.58 347.383 536.14 348.475 536.14C348.755 536.14 348.937 536.056 349.147 536V535.104C349.007 535.132 348.853 535.16 348.741 535.16C348.489 535.16 348.335 535.034 348.335 534.726V530.512C348.335 528.636 346.207 528.468 345.619 528.468C343.813 528.468 342.651 529.154 342.595 530.904H343.729ZM347.103 533.466C347.103 534.446 345.983 535.188 344.835 535.188C343.911 535.188 343.505 534.712 343.505 533.914C343.505 532.99 344.471 532.808 345.073 532.724C346.599 532.528 346.907 532.416 347.103 532.262V533.466ZM356.38 531.016C356.38 528.93 354.952 528.468 353.818 528.468C352.558 528.468 351.872 529.322 351.606 529.714H351.578V528.678H350.416V536H351.648V532.01C351.648 530.022 352.88 529.574 353.58 529.574C354.784 529.574 355.148 530.218 355.148 531.492V536H356.38V531.016ZM359.959 534.516H358.503V536H359.959V534.516ZM369.27 526.158H368.304C367.912 527.768 367.254 527.922 365.658 528.034V529.014H367.954V536H369.27V526.158ZM375.159 531.464C375.341 531.464 375.537 531.45 375.719 531.45C376.559 531.45 378.015 531.604 378.015 533.256C378.015 534.39 377.133 535.16 375.873 535.16C374.039 535.16 373.815 533.914 373.773 532.99H372.499C372.583 534.124 372.877 535.258 373.969 535.832C374.445 536.084 375.061 536.266 375.789 536.266C378.295 536.266 379.331 534.712 379.331 533.102C379.331 531.786 378.645 531.114 377.693 530.806V530.778C378.225 530.61 378.953 530.008 378.953 528.748C378.953 527.25 377.819 526.158 375.915 526.158C373.325 526.158 372.737 527.936 372.737 529.378H373.941C373.997 528.692 374.109 527.264 375.859 527.264C377.329 527.264 377.679 528.23 377.679 528.818C377.679 530.05 376.755 530.428 375.803 530.428C375.593 530.428 375.369 530.414 375.159 530.4V531.464Z" fill="#666666"/>
<path d="M420.238 532.766V533.76C420.238 534.698 420.756 536.266 423.094 536.266C424.452 536.266 425.992 535.636 425.992 533.284V525.948H424.634V533.368C424.634 534.348 424.284 535.104 423.024 535.104C422.086 535.104 421.512 534.67 421.512 533.466V532.766H420.238ZM428.729 530.904C428.813 530.344 429.009 529.49 430.409 529.49C431.571 529.49 432.131 529.91 432.131 530.68C432.131 531.408 431.781 531.52 431.487 531.548L429.457 531.8C427.413 532.052 427.231 533.48 427.231 534.096C427.231 535.356 428.183 536.21 429.527 536.21C430.955 536.21 431.697 535.538 432.173 535.02C432.215 535.58 432.383 536.14 433.475 536.14C433.755 536.14 433.937 536.056 434.147 536V535.104C434.007 535.132 433.853 535.16 433.741 535.16C433.489 535.16 433.335 535.034 433.335 534.726V530.512C433.335 528.636 431.207 528.468 430.619 528.468C428.813 528.468 427.651 529.154 427.595 530.904H428.729ZM432.103 533.466C432.103 534.446 430.983 535.188 429.835 535.188C428.911 535.188 428.505 534.712 428.505 533.914C428.505 532.99 429.471 532.808 430.073 532.724C431.599 532.528 431.907 532.416 432.103 532.262V533.466ZM441.38 531.016C441.38 528.93 439.952 528.468 438.818 528.468C437.558 528.468 436.872 529.322 436.606 529.714H436.578V528.678H435.416V536H436.648V532.01C436.648 530.022 437.88 529.574 438.58 529.574C439.784 529.574 440.148 530.218 440.148 531.492V536H441.38V531.016ZM444.959 534.516H443.503V536H444.959V534.516ZM454.27 526.158H453.304C452.912 527.768 452.254 527.922 450.658 528.034V529.014H452.954V536H454.27V526.158ZM464.345 533.606V532.542H462.903V526.158H461.881L457.373 532.402V533.606H461.671V536H462.903V533.606H464.345ZM461.643 528.076H461.671V532.542H458.507L461.643 528.076Z" fill="#666666"/>
<path d="M505.238 532.766V533.76C505.238 534.698 505.756 536.266 508.094 536.266C509.452 536.266 510.992 535.636 510.992 533.284V525.948H509.634V533.368C509.634 534.348 509.284 535.104 508.024 535.104C507.086 535.104 506.512 534.67 506.512 533.466V532.766H505.238ZM513.729 530.904C513.813 530.344 514.009 529.49 515.409 529.49C516.571 529.49 517.131 529.91 517.131 530.68C517.131 531.408 516.781 531.52 516.487 531.548L514.457 531.8C512.413 532.052 512.231 533.48 512.231 534.096C512.231 535.356 513.183 536.21 514.527 536.21C515.955 536.21 516.697 535.538 517.173 535.02C517.215 535.58 517.383 536.14 518.475 536.14C518.755 536.14 518.937 536.056 519.147 536V535.104C519.007 535.132 518.853 535.16 518.741 535.16C518.489 535.16 518.335 535.034 518.335 534.726V530.512C518.335 528.636 516.207 528.468 515.619 528.468C513.813 528.468 512.651 529.154 512.595 530.904H513.729ZM517.103 533.466C517.103 534.446 515.983 535.188 514.835 535.188C513.911 535.188 513.505 534.712 513.505 533.914C513.505 532.99 514.471 532.808 515.073 532.724C516.599 532.528 516.907 532.416 517.103 532.262V533.466ZM526.38 531.016C526.38 528.93 524.952 528.468 523.818 528.468C522.558 528.468 521.872 529.322 521.606 529.714H521.578V528.678H520.416V536H521.648V532.01C521.648 530.022 522.88 529.574 523.58 529.574C524.784 529.574 525.148 530.218 525.148 531.492V536H526.38V531.016ZM529.959 534.516H528.503V536H529.959V534.516ZM539.27 526.158H538.304C537.912 527.768 537.254 527.922 535.658 528.034V529.014H537.954V536H539.27V526.158ZM544.501 527.572H548.673V526.368H543.577L542.835 531.646L543.899 531.702C544.361 531.1 545.005 530.764 545.719 530.764C546.937 530.764 547.903 531.534 547.903 532.948C547.903 534.18 547.105 535.202 545.831 535.202C544.725 535.202 543.871 534.698 543.745 533.55H542.471C542.709 535.748 544.361 536.266 545.649 536.266C548.729 536.266 549.219 533.9 549.219 532.808C549.219 530.778 547.581 529.658 545.985 529.658C545.103 529.658 544.501 529.952 544.081 530.274L544.501 527.572Z" fill="#666666"/>
<path d="M590.238 532.766V533.76C590.238 534.698 590.756 536.266 593.094 536.266C594.452 536.266 595.992 535.636 595.992 533.284V525.948H594.634V533.368C594.634 534.348 594.284 535.104 593.024 535.104C592.086 535.104 591.512 534.67 591.512 533.466V532.766H590.238ZM598.729 530.904C598.813 530.344 599.009 529.49 600.409 529.49C601.571 529.49 602.131 529.91 602.131 530.68C602.131 531.408 601.781 531.52 601.487 531.548L599.457 531.8C597.413 532.052 597.231 533.48 597.231 534.096C597.231 535.356 598.183 536.21 599.527 536.21C600.955 536.21 601.697 535.538 602.173 535.02C602.215 535.58 602.383 536.14 603.475 536.14C603.755 536.14 603.937 536.056 604.147 536V535.104C604.007 535.132 603.853 535.16 603.741 535.16C603.489 535.16 603.335 535.034 603.335 534.726V530.512C603.335 528.636 601.207 528.468 600.619 528.468C598.813 528.468 597.651 529.154 597.595 530.904H598.729ZM602.103 533.466C602.103 534.446 600.983 535.188 599.835 535.188C598.911 535.188 598.505 534.712 598.505 533.914C598.505 532.99 599.471 532.808 600.073 532.724C601.599 532.528 601.907 532.416 602.103 532.262V533.466ZM611.38 531.016C611.38 528.93 609.952 528.468 608.818 528.468C607.558 528.468 606.872 529.322 606.606 529.714H606.578V528.678H605.416V536H606.648V532.01C606.648 530.022 607.88 529.574 608.58 529.574C609.784 529.574 610.148 530.218 610.148 531.492V536H611.38V531.016ZM614.959 534.516H613.503V536H614.959V534.516ZM624.27 526.158H623.304C622.912 527.768 622.254 527.922 620.658 528.034V529.014H622.954V536H624.27V526.158ZM634.065 528.776C633.939 526.774 632.329 526.158 631.195 526.158C628.255 526.158 627.555 529.266 627.555 531.422C627.555 532.71 627.723 533.914 628.311 534.838C629.011 535.93 630.089 536.266 630.845 536.266C632.231 536.266 632.819 535.888 633.337 535.314C634.009 534.586 634.275 533.858 634.275 532.85C634.275 530.498 632.399 529.728 631.195 529.728C629.851 529.728 629.165 530.4 628.857 530.932L628.829 530.904C628.829 529.868 629.235 527.264 631.167 527.264C632.231 527.264 632.707 527.908 632.861 528.776H634.065ZM628.997 532.976C628.997 531.814 629.655 530.834 631.013 530.834C632.539 530.834 633.001 532.038 633.001 532.906C633.001 534.236 632.245 535.16 631.069 535.16C629.627 535.16 628.997 534.026 628.997 532.976Z" fill="#666666"/>
<path d="M675.238 532.766V533.76C675.238 534.698 675.756 536.266 678.094 536.266C679.452 536.266 680.992 535.636 680.992 533.284V525.948H679.634V533.368C679.634 534.348 679.284 535.104 678.024 535.104C677.086 535.104 676.512 534.67 676.512 533.466V532.766H675.238ZM683.729 530.904C683.813 530.344 684.009 529.49 685.409 529.49C686.571 529.49 687.131 529.91 687.131 530.68C687.131 531.408 686.781 531.52 686.487 531.548L684.457 531.8C682.413 532.052 682.231 533.48 682.231 534.096C682.231 535.356 683.183 536.21 684.527 536.21C685.955 536.21 686.697 535.538 687.173 535.02C687.215 535.58 687.383 536.14 688.475 536.14C688.755 536.14 688.937 536.056 689.147 536V535.104C689.007 535.132 688.853 535.16 688.741 535.16C688.489 535.16 688.335 535.034 688.335 534.726V530.512C688.335 528.636 686.207 528.468 685.619 528.468C683.813 528.468 682.651 529.154 682.595 530.904H683.729ZM687.103 533.466C687.103 534.446 685.983 535.188 684.835 535.188C683.911 535.188 683.505 534.712 683.505 533.914C683.505 532.99 684.471 532.808 685.073 532.724C686.599 532.528 686.907 532.416 687.103 532.262V533.466ZM696.38 531.016C696.38 528.93 694.952 528.468 693.818 528.468C692.558 528.468 691.872 529.322 691.606 529.714H691.578V528.678H690.416V536H691.648V532.01C691.648 530.022 692.88 529.574 693.58 529.574C694.784 529.574 695.148 530.218 695.148 531.492V536H696.38V531.016ZM699.959 534.516H698.503V536H699.959V534.516ZM709.27 526.158H708.304C707.912 527.768 707.254 527.922 705.658 528.034V529.014H707.954V536H709.27V526.158ZM712.541 527.572H717.959C716.069 529.77 714.277 533.298 713.941 536H715.299C716.013 531.604 718.365 528.468 719.345 527.446V526.368H712.541V527.572Z" fill="#666666"/>
<path d="M760.238 532.766V533.76C760.238 534.698 760.756 536.266 763.094 536.266C764.452 536.266 765.992 535.636 765.992 533.284V525.948H764.634V533.368C764.634 534.348 764.284 535.104 763.024 535.104C762.086 535.104 761.512 534.67 761.512 533.466V532.766H760.238ZM768.729 530.904C768.813 530.344 769.009 529.49 770.409 529.49C771.571 529.49 772.131 529.91 772.131 530.68C772.131 531.408 771.781 531.52 771.487 531.548L769.457 531.8C767.413 532.052 767.231 533.48 767.231 534.096C767.231 535.356 768.183 536.21 769.527 536.21C770.955 536.21 771.697 535.538 772.173 535.02C772.215 535.58 772.383 536.14 773.475 536.14C773.755 536.14 773.937 536.056 774.147 536V535.104C774.007 535.132 773.853 535.16 773.741 535.16C773.489 535.16 773.335 535.034 773.335 534.726V530.512C773.335 528.636 771.207 528.468 770.619 528.468C768.813 528.468 767.651 529.154 767.595 530.904H768.729ZM772.103 533.466C772.103 534.446 770.983 535.188 769.835 535.188C768.911 535.188 768.505 534.712 768.505 533.914C768.505 532.99 769.471 532.808 770.073 532.724C771.599 532.528 771.907 532.416 772.103 532.262V533.466ZM781.38 531.016C781.38 528.93 779.952 528.468 778.818 528.468C777.558 528.468 776.872 529.322 776.606 529.714H776.578V528.678H775.416V536H776.648V532.01C776.648 530.022 777.88 529.574 778.58 529.574C779.784 529.574 780.148 530.218 780.148 531.492V536H781.38V531.016ZM784.959 534.516H783.503V536H784.959V534.516ZM794.27 526.158H793.304C792.912 527.768 792.254 527.922 790.658 528.034V529.014H792.954V536H794.27V526.158ZM803.911 528.692C803.911 527.544 803.057 526.158 800.873 526.158C798.521 526.158 797.891 527.838 797.891 528.86C797.891 529.784 798.381 530.456 799.221 530.778C798.185 531.198 797.555 531.968 797.555 533.172C797.555 533.648 797.555 534.712 798.563 535.51C799.347 536.126 800.383 536.266 800.929 536.266C803.253 536.266 804.261 534.74 804.261 533.158C804.261 532.416 803.981 531.324 802.651 530.764C803.085 530.54 803.911 530.106 803.911 528.692ZM800.901 531.38C802.021 531.38 802.945 531.968 802.945 533.298C802.945 534.838 801.867 535.16 800.971 535.16C799.263 535.16 798.871 533.984 798.871 533.2C798.871 532.29 799.515 531.38 800.901 531.38ZM800.887 530.316C799.991 530.316 799.165 529.742 799.165 528.804C799.165 528.174 799.487 527.264 800.803 527.264C802.245 527.264 802.637 528.132 802.637 528.734C802.637 529.63 801.951 530.316 800.887 530.316Z" fill="#666666"/>
<path d="M845.238 532.766V533.76C845.238 534.698 845.756 536.266 848.094 536.266C849.452 536.266 850.992 535.636 850.992 533.284V525.948H849.634V533.368C849.634 534.348 849.284 535.104 848.024 535.104C847.086 535.104 846.512 534.67 846.512 533.466V532.766H845.238ZM853.729 530.904C853.813 530.344 854.009 529.49 855.409 529.49C856.571 529.49 857.131 529.91 857.131 530.68C857.131 531.408 856.781 531.52 856.487 531.548L854.457 531.8C852.413 532.052 852.231 533.48 852.231 534.096C852.231 535.356 853.183 536.21 854.527 536.21C855.955 536.21 856.697 535.538 857.173 535.02C857.215 535.58 857.383 536.14 858.475 536.14C858.755 536.14 858.937 536.056 859.147 536V535.104C859.007 535.132 858.853 535.16 858.741 535.16C858.489 535.16 858.335 535.034 858.335 534.726V530.512C858.335 528.636 856.207 528.468 855.619 528.468C853.813 528.468 852.651 529.154 852.595 530.904H853.729ZM857.103 533.466C857.103 534.446 855.983 535.188 854.835 535.188C853.911 535.188 853.505 534.712 853.505 533.914C853.505 532.99 854.471 532.808 855.073 532.724C856.599 532.528 856.907 532.416 857.103 532.262V533.466ZM866.38 531.016C866.38 528.93 864.952 528.468 863.818 528.468C862.558 528.468 861.872 529.322 861.606 529.714H861.578V528.678H860.416V536H861.648V532.01C861.648 530.022 862.88 529.574 863.58 529.574C864.784 529.574 865.148 530.218 865.148 531.492V536H866.38V531.016ZM869.959 534.516H868.503V536H869.959V534.516ZM879.27 526.158H878.304C877.912 527.768 877.254 527.922 875.658 528.034V529.014H877.954V536H879.27V526.158ZM885.705 532.71C886.615 532.71 887.595 532.29 887.959 531.534L887.987 531.562C887.679 534.11 886.965 535.244 885.621 535.244C884.613 535.244 884.025 534.628 883.955 533.634H882.723C882.723 534.586 883.339 536.266 885.649 536.266C889.037 536.266 889.219 531.772 889.219 530.722C889.219 529.126 888.911 526.158 885.775 526.158C883.703 526.158 882.611 527.74 882.611 529.532C882.611 531.492 883.885 532.71 885.705 532.71ZM885.887 531.604C885.061 531.604 883.885 531.366 883.885 529.476C883.885 528.16 884.641 527.264 885.789 527.264C887.203 527.264 887.777 528.244 887.777 529.364C887.777 531.31 886.531 531.604 885.887 531.604Z" fill="#666666"/>
<path d="M930.238 532.766V533.76C930.238 534.698 930.756 536.266 933.094 536.266C934.452 536.266 935.992 535.636 935.992 533.284V525.948H934.634V533.368C934.634 534.348 934.284 535.104 933.024 535.104C932.086 535.104 931.512 534.67 931.512 533.466V532.766H930.238ZM938.729 530.904C938.813 530.344 939.009 529.49 940.409 529.49C941.571 529.49 942.131 529.91 942.131 530.68C942.131 531.408 941.781 531.52 941.487 531.548L939.457 531.8C937.413 532.052 937.231 533.48 937.231 534.096C937.231 535.356 938.183 536.21 939.527 536.21C940.955 536.21 941.697 535.538 942.173 535.02C942.215 535.58 942.383 536.14 943.475 536.14C943.755 536.14 943.937 536.056 944.147 536V535.104C944.007 535.132 943.853 535.16 943.741 535.16C943.489 535.16 943.335 535.034 943.335 534.726V530.512C943.335 528.636 941.207 528.468 940.619 528.468C938.813 528.468 937.651 529.154 937.595 530.904H938.729ZM942.103 533.466C942.103 534.446 940.983 535.188 939.835 535.188C938.911 535.188 938.505 534.712 938.505 533.914C938.505 532.99 939.471 532.808 940.073 532.724C941.599 532.528 941.907 532.416 942.103 532.262V533.466ZM951.38 531.016C951.38 528.93 949.952 528.468 948.818 528.468C947.558 528.468 946.872 529.322 946.606 529.714H946.578V528.678H945.416V536H946.648V532.01C946.648 530.022 947.88 529.574 948.58 529.574C949.784 529.574 950.148 530.218 950.148 531.492V536H951.38V531.016ZM954.959 534.516H953.503V536H954.959V534.516ZM961.092 529.686C961.134 529 961.218 527.264 963.08 527.264C964.522 527.264 965.026 528.258 965.026 529.042C965.026 530.33 964.27 530.736 963.22 531.338L961.918 532.094C960.602 532.864 959.678 533.956 959.608 536H966.342V534.838H960.994C961.05 534.46 961.344 533.69 962.688 532.948L963.71 532.388C965.18 531.604 966.342 530.862 966.342 529.098C966.342 527.264 964.97 526.158 963.262 526.158C962.198 526.158 959.86 526.48 959.86 529.686H961.092ZM972.973 531.212C972.973 533.676 972.329 535.16 970.915 535.16C969.501 535.16 968.857 533.676 968.857 531.212C968.857 528.748 969.501 527.264 970.915 527.264C972.329 527.264 972.973 528.748 972.973 531.212ZM974.289 531.212C974.289 529.168 973.743 526.158 970.915 526.158C968.087 526.158 967.541 529.168 967.541 531.212C967.541 533.256 968.087 536.266 970.915 536.266C973.743 536.266 974.289 533.256 974.289 531.212Z" fill="#666666"/>
<path d="M1015.24 532.766V533.76C1015.24 534.698 1015.76 536.266 1018.09 536.266C1019.45 536.266 1020.99 535.636 1020.99 533.284V525.948H1019.63V533.368C1019.63 534.348 1019.28 535.104 1018.02 535.104C1017.09 535.104 1016.51 534.67 1016.51 533.466V532.766H1015.24ZM1023.73 530.904C1023.81 530.344 1024.01 529.49 1025.41 529.49C1026.57 529.49 1027.13 529.91 1027.13 530.68C1027.13 531.408 1026.78 531.52 1026.49 531.548L1024.46 531.8C1022.41 532.052 1022.23 533.48 1022.23 534.096C1022.23 535.356 1023.18 536.21 1024.53 536.21C1025.95 536.21 1026.7 535.538 1027.17 535.02C1027.21 535.58 1027.38 536.14 1028.47 536.14C1028.75 536.14 1028.94 536.056 1029.15 536V535.104C1029.01 535.132 1028.85 535.16 1028.74 535.16C1028.49 535.16 1028.33 535.034 1028.33 534.726V530.512C1028.33 528.636 1026.21 528.468 1025.62 528.468C1023.81 528.468 1022.65 529.154 1022.59 530.904H1023.73ZM1027.1 533.466C1027.1 534.446 1025.98 535.188 1024.83 535.188C1023.91 535.188 1023.5 534.712 1023.5 533.914C1023.5 532.99 1024.47 532.808 1025.07 532.724C1026.6 532.528 1026.91 532.416 1027.1 532.262V533.466ZM1036.38 531.016C1036.38 528.93 1034.95 528.468 1033.82 528.468C1032.56 528.468 1031.87 529.322 1031.61 529.714H1031.58V528.678H1030.42V536H1031.65V532.01C1031.65 530.022 1032.88 529.574 1033.58 529.574C1034.78 529.574 1035.15 530.218 1035.15 531.492V536H1036.38V531.016ZM1039.96 534.516H1038.5V536H1039.96V534.516ZM1046.09 529.686C1046.13 529 1046.22 527.264 1048.08 527.264C1049.52 527.264 1050.03 528.258 1050.03 529.042C1050.03 530.33 1049.27 530.736 1048.22 531.338L1046.92 532.094C1045.6 532.864 1044.68 533.956 1044.61 536H1051.34V534.838H1045.99C1046.05 534.46 1046.34 533.69 1047.69 532.948L1048.71 532.388C1050.18 531.604 1051.34 530.862 1051.34 529.098C1051.34 527.264 1049.97 526.158 1048.26 526.158C1047.2 526.158 1044.86 526.48 1044.86 529.686H1046.09ZM1057.05 526.158H1056.08C1055.69 527.768 1055.03 527.922 1053.44 528.034V529.014H1055.73V536H1057.05V526.158Z" fill="#666666"/>
<path d="M1100.24 532.766V533.76C1100.24 534.698 1100.76 536.266 1103.09 536.266C1104.45 536.266 1105.99 535.636 1105.99 533.284V525.948H1104.63V533.368C1104.63 534.348 1104.28 535.104 1103.02 535.104C1102.09 535.104 1101.51 534.67 1101.51 533.466V532.766H1100.24ZM1108.73 530.904C1108.81 530.344 1109.01 529.49 1110.41 529.49C1111.57 529.49 1112.13 529.91 1112.13 530.68C1112.13 531.408 1111.78 531.52 1111.49 531.548L1109.46 531.8C1107.41 532.052 1107.23 533.48 1107.23 534.096C1107.23 535.356 1108.18 536.21 1109.53 536.21C1110.95 536.21 1111.7 535.538 1112.17 535.02C1112.21 535.58 1112.38 536.14 1113.47 536.14C1113.75 536.14 1113.94 536.056 1114.15 536V535.104C1114.01 535.132 1113.85 535.16 1113.74 535.16C1113.49 535.16 1113.33 535.034 1113.33 534.726V530.512C1113.33 528.636 1111.21 528.468 1110.62 528.468C1108.81 528.468 1107.65 529.154 1107.59 530.904H1108.73ZM1112.1 533.466C1112.1 534.446 1110.98 535.188 1109.83 535.188C1108.91 535.188 1108.5 534.712 1108.5 533.914C1108.5 532.99 1109.47 532.808 1110.07 532.724C1111.6 532.528 1111.91 532.416 1112.1 532.262V533.466ZM1121.38 531.016C1121.38 528.93 1119.95 528.468 1118.82 528.468C1117.56 528.468 1116.87 529.322 1116.61 529.714H1116.58V528.678H1115.42V536H1116.65V532.01C1116.65 530.022 1117.88 529.574 1118.58 529.574C1119.78 529.574 1120.15 530.218 1120.15 531.492V536H1121.38V531.016ZM1124.96 534.516H1123.5V536H1124.96V534.516ZM1131.09 529.686C1131.13 529 1131.22 527.264 1133.08 527.264C1134.52 527.264 1135.03 528.258 1135.03 529.042C1135.03 530.33 1134.27 530.736 1133.22 531.338L1131.92 532.094C1130.6 532.864 1129.68 533.956 1129.61 536H1136.34V534.838H1130.99C1131.05 534.46 1131.34 533.69 1132.69 532.948L1133.71 532.388C1135.18 531.604 1136.34 530.862 1136.34 529.098C1136.34 527.264 1134.97 526.158 1133.26 526.158C1132.2 526.158 1129.86 526.48 1129.86 529.686H1131.09ZM1138.87 529.686C1138.91 529 1139 527.264 1140.86 527.264C1142.3 527.264 1142.81 528.258 1142.81 529.042C1142.81 530.33 1142.05 530.736 1141 531.338L1139.7 532.094C1138.38 532.864 1137.46 533.956 1137.39 536H1144.12V534.838H1138.77C1138.83 534.46 1139.12 533.69 1140.47 532.948L1141.49 532.388C1142.96 531.604 1144.12 530.862 1144.12 529.098C1144.12 527.264 1142.75 526.158 1141.04 526.158C1139.98 526.158 1137.64 526.48 1137.64 529.686H1138.87Z" fill="#666666"/>
<path d="M1185.24 532.766V533.76C1185.24 534.698 1185.76 536.266 1188.09 536.266C1189.45 536.266 1190.99 535.636 1190.99 533.284V525.948H1189.63V533.368C1189.63 534.348 1189.28 535.104 1188.02 535.104C1187.09 535.104 1186.51 534.67 1186.51 533.466V532.766H1185.24ZM1193.73 530.904C1193.81 530.344 1194.01 529.49 1195.41 529.49C1196.57 529.49 1197.13 529.91 1197.13 530.68C1197.13 531.408 1196.78 531.52 1196.49 531.548L1194.46 531.8C1192.41 532.052 1192.23 533.48 1192.23 534.096C1192.23 535.356 1193.18 536.21 1194.53 536.21C1195.95 536.21 1196.7 535.538 1197.17 535.02C1197.21 535.58 1197.38 536.14 1198.47 536.14C1198.75 536.14 1198.94 536.056 1199.15 536V535.104C1199.01 535.132 1198.85 535.16 1198.74 535.16C1198.49 535.16 1198.33 535.034 1198.33 534.726V530.512C1198.33 528.636 1196.21 528.468 1195.62 528.468C1193.81 528.468 1192.65 529.154 1192.59 530.904H1193.73ZM1197.1 533.466C1197.1 534.446 1195.98 535.188 1194.83 535.188C1193.91 535.188 1193.5 534.712 1193.5 533.914C1193.5 532.99 1194.47 532.808 1195.07 532.724C1196.6 532.528 1196.91 532.416 1197.1 532.262V533.466ZM1206.38 531.016C1206.38 528.93 1204.95 528.468 1203.82 528.468C1202.56 528.468 1201.87 529.322 1201.61 529.714H1201.58V528.678H1200.42V536H1201.65V532.01C1201.65 530.022 1202.88 529.574 1203.58 529.574C1204.78 529.574 1205.15 530.218 1205.15 531.492V536H1206.38V531.016ZM1209.96 534.516H1208.5V536H1209.96V534.516ZM1216.09 529.686C1216.13 529 1216.22 527.264 1218.08 527.264C1219.52 527.264 1220.03 528.258 1220.03 529.042C1220.03 530.33 1219.27 530.736 1218.22 531.338L1216.92 532.094C1215.6 532.864 1214.68 533.956 1214.61 536H1221.34V534.838H1215.99C1216.05 534.46 1216.34 533.69 1217.69 532.948L1218.71 532.388C1220.18 531.604 1221.34 530.862 1221.34 529.098C1221.34 527.264 1219.97 526.158 1218.26 526.158C1217.2 526.158 1214.86 526.48 1214.86 529.686H1216.09ZM1225.16 531.464C1225.34 531.464 1225.54 531.45 1225.72 531.45C1226.56 531.45 1228.02 531.604 1228.02 533.256C1228.02 534.39 1227.13 535.16 1225.87 535.16C1224.04 535.16 1223.82 533.914 1223.77 532.99H1222.5C1222.58 534.124 1222.88 535.258 1223.97 535.832C1224.45 536.084 1225.06 536.266 1225.79 536.266C1228.3 536.266 1229.33 534.712 1229.33 533.102C1229.33 531.786 1228.65 531.114 1227.69 530.806V530.778C1228.23 530.61 1228.95 530.008 1228.95 528.748C1228.95 527.25 1227.82 526.158 1225.92 526.158C1223.33 526.158 1222.74 527.936 1222.74 529.378H1223.94C1224 528.692 1224.11 527.264 1225.86 527.264C1227.33 527.264 1227.68 528.23 1227.68 528.818C1227.68 530.05 1226.76 530.428 1225.8 530.428C1225.59 530.428 1225.37 530.414 1225.16 530.4V531.464Z" fill="#666666"/>
<path d="M1270.24 532.766V533.76C1270.24 534.698 1270.76 536.266 1273.09 536.266C1274.45 536.266 1275.99 535.636 1275.99 533.284V525.948H1274.63V533.368C1274.63 534.348 1274.28 535.104 1273.02 535.104C1272.09 535.104 1271.51 534.67 1271.51 533.466V532.766H1270.24ZM1278.73 530.904C1278.81 530.344 1279.01 529.49 1280.41 529.49C1281.57 529.49 1282.13 529.91 1282.13 530.68C1282.13 531.408 1281.78 531.52 1281.49 531.548L1279.46 531.8C1277.41 532.052 1277.23 533.48 1277.23 534.096C1277.23 535.356 1278.18 536.21 1279.53 536.21C1280.95 536.21 1281.7 535.538 1282.17 535.02C1282.21 535.58 1282.38 536.14 1283.47 536.14C1283.75 536.14 1283.94 536.056 1284.15 536V535.104C1284.01 535.132 1283.85 535.16 1283.74 535.16C1283.49 535.16 1283.33 535.034 1283.33 534.726V530.512C1283.33 528.636 1281.21 528.468 1280.62 528.468C1278.81 528.468 1277.65 529.154 1277.59 530.904H1278.73ZM1282.1 533.466C1282.1 534.446 1280.98 535.188 1279.83 535.188C1278.91 535.188 1278.5 534.712 1278.5 533.914C1278.5 532.99 1279.47 532.808 1280.07 532.724C1281.6 532.528 1281.91 532.416 1282.1 532.262V533.466ZM1291.38 531.016C1291.38 528.93 1289.95 528.468 1288.82 528.468C1287.56 528.468 1286.87 529.322 1286.61 529.714H1286.58V528.678H1285.42V536H1286.65V532.01C1286.65 530.022 1287.88 529.574 1288.58 529.574C1289.78 529.574 1290.15 530.218 1290.15 531.492V536H1291.38V531.016ZM1294.96 534.516H1293.5V536H1294.96V534.516ZM1301.09 529.686C1301.13 529 1301.22 527.264 1303.08 527.264C1304.52 527.264 1305.03 528.258 1305.03 529.042C1305.03 530.33 1304.27 530.736 1303.22 531.338L1301.92 532.094C1300.6 532.864 1299.68 533.956 1299.61 536H1306.34V534.838H1300.99C1301.05 534.46 1301.34 533.69 1302.69 532.948L1303.71 532.388C1305.18 531.604 1306.34 530.862 1306.34 529.098C1306.34 527.264 1304.97 526.158 1303.26 526.158C1302.2 526.158 1299.86 526.48 1299.86 529.686H1301.09ZM1314.35 533.606V532.542H1312.9V526.158H1311.88L1307.37 532.402V533.606H1311.67V536H1312.9V533.606H1314.35ZM1311.64 528.076H1311.67V532.542H1308.51L1311.64 528.076Z" fill="#666666"/>
<rect x="95" y="60" width="1285" height="1" fill="#F0F0F0"/>
<rect x="95" y="105" width="1285" height="1" fill="#F0F0F0"/>
<rect x="95" y="150" width="1285" height="1" fill="#F0F0F0"/>
<rect x="95" y="195" width="1285" height="1" fill="#F0F0F0"/>
<rect x="95" y="240" width="1285" height="1" fill="#F0F0F0"/>
<rect x="95" y="285" width="1285" height="1" fill="#F0F0F0"/>
<rect x="95" y="330" width="1285" height="1" fill="#F0F0F0"/>
<rect x="95" y="375" width="1285" height="1" fill="#F0F0F0"/>
<rect x="95" y="420" width="1285" height="1" fill="#F0F0F0"/>
<rect x="95" y="465" width="1285" height="1" fill="#F0F0F0"/>
<rect x="95" y="510" width="1285" height="1" fill="#F0F0F0"/>
<rect x="150" y="437" width="70" height="73" fill="url(#paint0_linear_129_232)"/>
<rect x="235" y="60" width="70" height="450" fill="url(#paint1_linear_129_232)"/>
<rect x="320" y="268" width="70" height="242" fill="url(#paint2_linear_129_232)"/>
<rect x="405" y="351" width="70" height="159" fill="url(#paint3_linear_129_232)"/>
<rect x="490" y="191" width="70" height="319" fill="url(#paint4_linear_129_232)"/>
<rect x="575" y="268" width="70" height="242" fill="url(#paint5_linear_129_232)"/>
<rect x="660" y="223" width="70" height="287" fill="url(#paint6_linear_129_232)"/>
<rect x="745" y="291" width="70" height="219" fill="url(#paint7_linear_129_232)"/>
<rect x="830" y="163" width="70" height="347" fill="url(#paint8_linear_129_232)"/>
<rect x="915" y="496" width="70" height="14" fill="url(#paint9_linear_129_232)"/>
<rect x="1000" y="437" width="70" height="73" fill="url(#paint10_linear_129_232)"/>
<rect x="1085" y="268" width="70" height="242" fill="url(#paint11_linear_129_232)"/>
<rect x="1170" y="223" width="70" height="287" fill="url(#paint12_linear_129_232)"/>
<rect x="1255" y="268" width="70" height="242" fill="url(#paint13_linear_129_232)"/>
<rect x="0.5" y="0.5" width="1409" height="591" rx="6.5" stroke="#F0F0F0"/>
<defs>
<linearGradient id="paint0_linear_129_232" x1="185" y1="437" x2="185" y2="510" gradientUnits="userSpaceOnUse">
<stop stop-color="#4903BD"/>
<stop offset="1" stop-color="white" stop-opacity="0"/>
</linearGradient>
<linearGradient id="paint1_linear_129_232" x1="270" y1="60" x2="270" y2="510" gradientUnits="userSpaceOnUse">
<stop stop-color="#4903BD"/>
<stop offset="1" stop-color="white" stop-opacity="0"/>
</linearGradient>
<linearGradient id="paint2_linear_129_232" x1="355" y1="268" x2="355" y2="510" gradientUnits="userSpaceOnUse">
<stop stop-color="#4903BD"/>
<stop offset="1" stop-color="white" stop-opacity="0"/>
</linearGradient>
<linearGradient id="paint3_linear_129_232" x1="440" y1="351" x2="440" y2="510" gradientUnits="userSpaceOnUse">
<stop stop-color="#4903BD"/>
<stop offset="1" stop-color="white" stop-opacity="0"/>
</linearGradient>
<linearGradient id="paint4_linear_129_232" x1="525" y1="191" x2="525" y2="510" gradientUnits="userSpaceOnUse">
<stop stop-color="#4903BD"/>
<stop offset="1" stop-color="white" stop-opacity="0"/>
</linearGradient>
<linearGradient id="paint5_linear_129_232" x1="610" y1="268" x2="610" y2="510" gradientUnits="userSpaceOnUse">
<stop stop-color="#4903BD"/>
<stop offset="1" stop-color="white" stop-opacity="0"/>
</linearGradient>
<linearGradient id="paint6_linear_129_232" x1="695" y1="223" x2="695" y2="510" gradientUnits="userSpaceOnUse">
<stop stop-color="#4903BD"/>
<stop offset="1" stop-color="white" stop-opacity="0"/>
</linearGradient>
<linearGradient id="paint7_linear_129_232" x1="780" y1="291" x2="780" y2="510" gradientUnits="userSpaceOnUse">
<stop stop-color="#4903BD"/>
<stop offset="1" stop-color="white" stop-opacity="0"/>
</linearGradient>
<linearGradient id="paint8_linear_129_232" x1="865" y1="163" x2="865" y2="510" gradientUnits="userSpaceOnUse">
<stop stop-color="#4E13CD"/>
<stop offset="1" stop-color="white" stop-opacity="0"/>
</linearGradient>
<linearGradient id="paint9_linear_129_232" x1="950" y1="496" x2="950" y2="510" gradientUnits="userSpaceOnUse">
<stop stop-color="#4903BD"/>
<stop offset="1" stop-color="white" stop-opacity="0"/>
</linearGradient>
<linearGradient id="paint10_linear_129_232" x1="1035" y1="437" x2="1035" y2="510" gradientUnits="userSpaceOnUse">
<stop stop-color="#4903BD"/>
<stop offset="1" stop-color="white" stop-opacity="0"/>
</linearGradient>
<linearGradient id="paint11_linear_129_232" x1="1120" y1="268" x2="1120" y2="510" gradientUnits="userSpaceOnUse">
<stop stop-color="#4903BD"/>
<stop offset="1" stop-color="white" stop-opacity="0"/>
</linearGradient>
<linearGradient id="paint12_linear_129_232" x1="1205" y1="223" x2="1205" y2="510" gradientUnits="userSpaceOnUse">
<stop stop-color="#101010"/>
<stop offset="1" stop-color="white" stop-opacity="0"/>
</linearGradient>
<linearGradient id="paint13_linear_129_232" x1="1290" y1="268" x2="1290" y2="510" gradientUnits="userSpaceOnUse">
<stop stop-color="#4903BD"/>
<stop offset="1" stop-color="white" stop-opacity="0"/>
</linearGradient>
</defs>
</svg>
