<svg width="24" height="25" viewBox="0 0 24 25" fill="none" xmlns="http://www.w3.org/2000/svg">
<path fill-rule="evenodd" clip-rule="evenodd" d="M5 20.75C4.30964 20.75 3.75 20.1904 3.75 19.5V5.5C3.75 4.80964 4.30964 4.25 5 4.25H19C19.6904 4.25 20.25 4.80964 20.25 5.5V19.5C20.25 20.1904 19.6904 20.75 19 20.75H5ZM2.25 19.5C2.25 21.0188 3.48122 22.25 5 22.25H19C20.5188 22.25 21.75 21.0188 21.75 19.5V5.5C21.75 3.98122 20.5188 2.75 19 2.75H5C3.48122 2.75 2.25 3.98122 2.25 5.5V19.5Z" fill="#F0F0F0"/>
<path fill-rule="evenodd" clip-rule="evenodd" d="M6.25 17.5C6.25 17.9142 6.58579 18.25 7 18.25H10C10.4142 18.25 10.75 17.9142 10.75 17.5V8.5C10.75 8.08579 10.4142 7.75 10 7.75H7C6.58579 7.75 6.25 8.08579 6.25 8.5V17.5ZM7.75 16.75V9.25H9.25V16.75H7.75Z" fill="#F0F0F0"/>
<path fill-rule="evenodd" clip-rule="evenodd" d="M13.25 17.5C13.25 17.9142 13.5858 18.25 14 18.25H17C17.4142 18.25 17.75 17.9142 17.75 17.5V12.5C17.75 12.0858 17.4142 11.75 17 11.75H14C13.5858 11.75 13.25 12.0858 13.25 12.5V17.5ZM14.75 16.75V13.25H16.25V16.75H14.75Z" fill="#F0F0F0"/>
</svg>
