<svg width="24" height="25" viewBox="0 0 24 25" fill="none" xmlns="http://www.w3.org/2000/svg">
<g clip-path="url(#clip0_512_68)">
<path d="M14.12 14.8542C13.8454 15.1489 13.5141 15.3853 13.1462 15.5493C12.7782 15.7132 12.3809 15.8014 11.9781 15.8085C11.5753 15.8156 11.1752 15.7415 10.8016 15.5906C10.4281 15.4398 10.0887 15.2152 9.80385 14.9303C9.51897 14.6454 9.29439 14.3061 9.14351 13.9325C8.99262 13.559 8.91853 13.1589 8.92563 12.7561C8.93274 12.3533 9.02091 11.956 9.18488 11.588C9.34884 11.22 9.58525 10.8888 9.88 10.6142M17.94 18.6742C16.2306 19.9772 14.1491 20.699 12 20.7342C5 20.7342 1 12.7342 1 12.7342C2.24389 10.4161 3.96914 8.39076 6.06 6.79416L17.94 18.6742ZM9.9 4.97416C10.5883 4.81304 11.2931 4.73249 12 4.73416C19 4.73416 23 12.7342 23 12.7342C22.393 13.8698 21.6691 14.9389 20.84 15.9242L9.9 4.97416Z" stroke="#BFBFBF" stroke-width="2" stroke-linecap="round" stroke-linejoin="round"/>
<path d="M1 1.73413L23 23.7341" stroke="#BFBFBF" stroke-width="2" stroke-linecap="round" stroke-linejoin="round"/>
</g>
<defs>
<clipPath id="clip0_512_68">
<rect width="24" height="24" fill="white" transform="translate(0 0.734131)"/>
</clipPath>
</defs>
</svg>
