<svg width="68" height="68" viewBox="0 0 68 68" fill="none" xmlns="http://www.w3.org/2000/svg">
<path d="M48.1667 59.5V53.8333C48.1667 50.8275 46.9727 47.9449 44.8473 45.8195C42.7218 43.694 39.8392 42.5 36.8334 42.5H14.1667C11.1609 42.5 8.27824 43.694 6.15283 45.8195C4.02742 47.9449 2.83337 50.8275 2.83337 53.8333V59.5" stroke="#4E13CD" stroke-width="4" stroke-linecap="round" stroke-linejoin="round"/>
<path d="M25.5 31.1667C31.7592 31.1667 36.8334 26.0926 36.8334 19.8333C36.8334 13.5741 31.7592 8.5 25.5 8.5C19.2408 8.5 14.1667 13.5741 14.1667 19.8333C14.1667 26.0926 19.2408 31.1667 25.5 31.1667Z" stroke="#4E13CD" stroke-width="4" stroke-linecap="round" stroke-linejoin="round"/>
<path d="M65.1667 59.4998V53.8332C65.1648 51.3221 64.329 48.8827 62.7906 46.8981C61.2521 44.9134 59.0981 43.4959 56.6667 42.8682" stroke="#4E13CD" stroke-width="4" stroke-linecap="round" stroke-linejoin="round"/>
<path d="M45.3334 8.86841C47.7712 9.49259 49.932 10.9104 51.475 12.8983C53.0181 14.8862 53.8556 17.3311 53.8556 19.8476C53.8556 22.3641 53.0181 24.809 51.475 26.7969C49.932 28.7848 47.7712 30.2026 45.3334 30.8267" stroke="#4E13CD" stroke-width="4" stroke-linecap="round" stroke-linejoin="round"/>
</svg>
